<svg width="16" height="16" viewBox="0 0 16 16" fill="none" xmlns="http://www.w3.org/2000/svg">
<g clip-path="url(#clip0_4972_7636)">
<rect width="16" height="16" fill="#DA251C"/>
</g>
<g clip-path="url(#clip1_4972_7636)">
<path d="M8.44371 3.66609C8.36751 3.66904 8.29478 3.6987 8.23823 3.74986L5.49379 6.03209C5.44895 6.07654 5.39464 6.11029 5.33492 6.1308C5.2752 6.15131 5.21162 6.15806 5.14893 6.15053H3.38057C3.32318 6.15015 3.26628 6.16117 3.21318 6.18295C3.16008 6.20474 3.11184 6.23686 3.07126 6.27744C3.03067 6.31802 2.99856 6.36627 2.97677 6.41936C2.95498 6.47246 2.94396 6.52936 2.94435 6.58675V9.41281C2.94406 9.47014 2.95515 9.52696 2.97698 9.57997C2.99881 9.63299 3.03094 9.68114 3.07151 9.72165C3.11209 9.76216 3.1603 9.79421 3.21335 9.81595C3.2664 9.83769 3.32324 9.84869 3.38057 9.84831H5.14712C5.20982 9.84078 5.2734 9.84753 5.33312 9.86804C5.39284 9.88855 5.44715 9.92229 5.49198 9.96675L8.23643 12.249C8.42457 12.4053 8.62679 12.3299 8.62679 12.1446V3.85459C8.6282 3.82992 8.62447 3.80523 8.61584 3.78209C8.60721 3.75894 8.59387 3.73784 8.57666 3.72012C8.55945 3.7024 8.53874 3.68844 8.51585 3.67914C8.49297 3.66984 8.4684 3.66539 8.44371 3.66609ZM11.9721 4.49664L11.3254 5.14411C11.8714 5.99836 12.1615 6.99101 12.1615 8.00483C12.1615 9.01866 11.8714 10.0113 11.3254 10.8656L11.97 11.5069C12.6766 10.4747 13.055 9.25304 13.0553 8.0021C13.0557 6.75116 12.6782 5.52929 11.9721 4.49664ZM10.4074 6.05772L9.77115 6.69942C10.0536 7.07648 10.2063 7.53495 10.2063 8.0061C10.2063 8.47725 10.0536 8.93571 9.77115 9.31278L10.4053 9.94689C10.8514 9.39724 11.0952 8.71104 11.0958 8.00313C11.0965 7.29522 10.854 6.60856 10.4089 6.05808L10.4074 6.05772Z" fill="white"/>
</g>
<defs>
<clipPath id="clip0_4972_7636">
<rect width="16" height="16" fill="white"/>
</clipPath>
<clipPath id="clip1_4972_7636">
<rect width="11.5556" height="11.5556" fill="white" transform="translate(2.22217 2.22168)"/>
</clipPath>
</defs>
</svg>
