<svg width="20" height="20" viewBox="0 0 20 20" fill="none" xmlns="http://www.w3.org/2000/svg">
<path d="M3.41143 20.0067H16.5997C18.8704 20.0067 20 18.8772 20 16.6394V3.37453C20 1.13675 18.8704 0.00720215 16.5997 0.00720215H3.41143C1.15182 0.00720215 0 1.12609 0 3.37453V16.6399C0 18.8883 1.15182 20.0067 3.41143 20.0067ZM6.14893 14.8146C5.61682 14.8146 5.17138 14.3803 5.17138 13.8478C5.17138 13.5979 5.27984 13.3592 5.47545 13.1636L8.62592 9.99144L5.47545 6.83038C5.27984 6.63478 5.17138 6.39561 5.17138 6.14579C5.17138 5.60257 5.61635 5.15714 6.14939 5.15714C6.40988 5.15714 6.63793 5.25494 6.83353 5.45054L10.0058 8.62273L13.1776 5.45054C13.2635 5.35761 13.3677 5.28354 13.4837 5.23303C13.5998 5.18253 13.725 5.15668 13.8515 5.15714C14.1134 5.15812 14.3643 5.26261 14.5494 5.44782C14.7345 5.63303 14.8389 5.88393 14.8397 6.14579C14.8397 6.39608 14.7313 6.63478 14.5357 6.83038L11.3745 9.99144L14.5357 13.1636C14.7313 13.3592 14.8397 13.5979 14.8397 13.8478C14.8397 14.3803 14.3948 14.8146 13.8511 14.8146C13.6017 14.8146 13.3625 14.7173 13.1883 14.543L10.0058 11.3495L6.8224 14.543C6.73359 14.6304 6.62836 14.6994 6.51278 14.746C6.3972 14.7927 6.27354 14.816 6.14893 14.8146Z" fill="#EE4F4F"/>
</svg>
