<svg width="12" height="20" viewBox="0 0 12 20" fill="none" xmlns="http://www.w3.org/2000/svg">
<rect width="12" height="20" rx="6" fill="white"/>
<path fill-rule="evenodd" clip-rule="evenodd" d="M6 16C6.78793 16 7.56815 15.8448 8.2961 15.5433C9.02405 15.2417 9.68549 14.7998 10.2426 14.2426C10.7998 13.6855 11.2417 13.0241 11.5433 12.2961C11.8448 11.5681 12 10.7879 12 10C12 9.21207 11.8448 8.43185 11.5433 7.7039C11.2417 6.97595 10.7998 6.31451 10.2426 5.75736C9.68549 5.20021 9.02405 4.75825 8.2961 4.45672C7.56815 4.15519 6.78793 4 6 4C4.4087 4 2.88258 4.63214 1.75736 5.75736C0.632141 6.88258 0 8.4087 0 10C0 11.5913 0.632141 13.1174 1.75736 14.2426C2.88258 15.3679 4.4087 16 6 16ZM5.84533 12.4267L9.17867 8.42667L8.15467 7.57333L5.288 11.0127L3.80467 9.52867L2.862 10.4713L4.862 12.4713L5.378 12.9873L5.84533 12.4267Z" fill="#DA251C"/>
</svg>
