<svg width="49" height="49" viewBox="0 0 49 49" fill="none" xmlns="http://www.w3.org/2000/svg">
<g clip-path="url(#clip0_4972_7642)">
<rect width="49" height="49" fill="#DA251C"/>
</g>
<path d="M40.8327 37.204V11.7966C40.8327 9.80032 39.1994 8.16699 37.2031 8.16699H11.7956C9.79935 8.16699 8.16602 9.80032 8.16602 11.7966V37.204C8.16602 39.2003 9.79935 40.8336 11.7956 40.8336H37.2031C39.1994 40.8336 40.8327 39.2003 40.8327 37.204ZM18.8734 28.0936L22.6845 32.6851L28.3105 25.444C28.6734 24.9722 29.3993 24.9722 29.7623 25.4622L36.1323 33.9555C36.2334 34.0903 36.295 34.2506 36.3101 34.4184C36.3253 34.5863 36.2934 34.755 36.218 34.9057C36.1426 35.0565 36.0268 35.1832 35.8834 35.2718C35.7401 35.3604 35.5749 35.4073 35.4064 35.4073H13.6468C12.8845 35.4073 12.4671 34.5362 12.939 33.9373L17.4579 28.1299C17.8027 27.6581 18.4923 27.6399 18.8734 28.0936Z" fill="white"/>
<defs>
<clipPath id="clip0_4972_7642">
<rect width="49" height="49" fill="white"/>
</clipPath>
</defs>
</svg>
