<svg width="20" height="20" viewBox="0 0 20 20" fill="none" xmlns="http://www.w3.org/2000/svg">
<rect x="0.25" y="0.25" width="19.5" height="19.5" rx="9.75" stroke="#393939" stroke-width="0.5"/>
<path d="M7 13C6.17 13 5.4624 12.7074 4.8772 12.1222C4.292 11.537 3.9996 10.8296 4 10C4 9.17 4.2926 8.4624 4.8778 7.8772C5.463 7.292 6.1704 6.9996 7 7H8.8C8.97 7 9.1126 7.0576 9.2278 7.1728C9.343 7.288 9.4004 7.4304 9.4 7.6C9.4 7.77 9.3424 7.9126 9.2272 8.0278C9.112 8.143 8.9696 8.2004 8.8 8.2H7C6.5 8.2 6.075 8.375 5.725 8.725C5.375 9.075 5.2 9.5 5.2 10C5.2 10.5 5.375 10.925 5.725 11.275C6.075 11.625 6.5 11.8 7 11.8H8.8C8.97 11.8 9.1126 11.8576 9.2278 11.9728C9.343 12.088 9.4004 12.2304 9.4 12.4C9.4 12.57 9.3424 12.7126 9.2272 12.8278C9.112 12.943 8.9696 13.0004 8.8 13H7ZM8.2 10.6C8.03 10.6 7.8874 10.5424 7.7722 10.4272C7.657 10.312 7.5996 10.1696 7.6 10C7.6 9.83 7.6576 9.6874 7.7728 9.5722C7.888 9.457 8.0304 9.3996 8.2 9.4H11.8C11.97 9.4 12.1126 9.4576 12.2278 9.5728C12.343 9.688 12.4004 9.8304 12.4 10C12.4 10.17 12.3424 10.3126 12.2272 10.4278C12.112 10.543 11.9696 10.6004 11.8 10.6H8.2ZM11.2 13C11.03 13 10.8874 12.9424 10.7722 12.8272C10.657 12.712 10.5996 12.5696 10.6 12.4C10.6 12.23 10.6576 12.0874 10.7728 11.9722C10.888 11.857 11.0304 11.7996 11.2 11.8H13C13.5 11.8 13.925 11.625 14.275 11.275C14.625 10.925 14.8 10.5 14.8 10C14.8 9.5 14.625 9.075 14.275 8.725C13.925 8.375 13.5 8.2 13 8.2H11.2C11.03 8.2 10.8874 8.1424 10.7722 8.0272C10.657 7.912 10.5996 7.7696 10.6 7.6C10.6 7.43 10.6576 7.2874 10.7728 7.1722C10.888 7.057 11.0304 6.9996 11.2 7L13 7C13.83 7 14.5376 7.2926 15.1228 7.8778C15.708 8.463 16.0004 9.1704 16 10C16 10.83 15.7074 11.5376 15.1222 12.1228C14.537 12.708 13.8296 13.0004 13 13H11.2Z" fill="#393939"/>
</svg>
