<svg width="20" height="20" viewBox="0 0 20 20" fill="none" xmlns="http://www.w3.org/2000/svg">
<g clip-path="url(#clip0_6385_5923)">
<path d="M10 0C4.48 0 0 4.48 0 10C0 15.53 4.48 20 10 20C15.52 20 20 15.53 20 10C20 4.48 15.52 0 10 0ZM10 14.85C9.22 14.85 8.47 14.73 7.77 14.53C5.92 15.73 4.47 15.44 4.47 15.44C6.02 13.79 5.6 13.78 5.63 13.4C4.27 12.43 3.69 11.11 3.69 9.76C3.69 6.94 6.53 4.66 10 4.66C13.47 4.66 16.31 6.94 16.31 9.76C16.31 12.57 13.47 14.85 10 14.85Z" fill="#393939"/>
<path d="M8.28999 8.55C8.32999 8.49 8.35999 8.43 8.37999 8.36C8.39999 8.27 8.39999 8.18 8.39999 8.09H6.02999V8.6H7.66999C7.13999 9.27 6.60999 9.94 6.06999 10.6C6.02999 10.66 5.98999 10.73 5.96999 10.8C5.94999 10.89 5.95999 10.98 5.95999 11.07H8.19999C8.29999 11.07 8.38999 10.98 8.39999 10.88V10.59H6.66999C7.14999 9.99 7.61999 9.39 8.08999 8.79C8.15999 8.71 8.21999 8.63 8.28999 8.55Z" fill="#393939"/>
<path d="M14.01 9.01001C13.79 8.82001 13.5 8.72001 13.21 8.74001C13.04 8.74001 12.88 8.79001 12.73 8.86001C12.5 8.98001 12.31 9.18001 12.2 9.42001C12.07 9.71001 12.06 10.05 12.18 10.35C12.28 10.62 12.49 10.85 12.75 10.97C13.03 11.11 13.35 11.13 13.64 11.03C13.9 10.94 14.13 10.75 14.27 10.5C14.41 10.26 14.46 9.97001 14.41 9.70001C14.36 9.43001 14.22 9.18001 14.01 9.01001ZM13.92 10.1C13.88 10.25 13.79 10.38 13.67 10.47C13.57 10.54 13.45 10.59 13.33 10.6C13.18 10.62 13.02 10.58 12.9 10.5C12.78 10.42 12.68 10.31 12.62 10.17C12.56 10.01 12.56 9.82001 12.62 9.66001C12.71 9.43001 12.93 9.26001 13.17 9.23001C13.3 9.21001 13.44 9.23001 13.56 9.29001C13.7 9.36001 13.82 9.48001 13.89 9.62001C13.95 9.77001 13.97 9.95001 13.92 10.1Z" fill="#393939"/>
<path d="M11.25 10.89C11.25 10.98 11.32 11.07 11.41 11.07H11.76V8.09H11.25V10.89Z" fill="#393939"/>
<path d="M10.37 8.97C10.22 8.86 10.04 8.79 9.86 8.76C9.64 8.73 9.41 8.76 9.21 8.85C8.97 8.96 8.77 9.15 8.65 9.39C8.54 9.6 8.5 9.84 8.53 10.07C8.56 10.32 8.68 10.55 8.85 10.73C9.02 10.91 9.26 11.04 9.51 11.08C9.81 11.12 10.12 11.04 10.37 10.86C10.37 10.97 10.45 11.06 10.55 11.07H10.84V8.81H10.37V8.97ZM10.34 10.11C10.3 10.26 10.21 10.39 10.08 10.48C9.97 10.56 9.82 10.61 9.67 10.61C9.53 10.61 9.38 10.56 9.27 10.47C9.16 10.38 9.07 10.26 9.03 10.13C8.98 9.96 8.99 9.77 9.07 9.62C9.17 9.4 9.4 9.24 9.64 9.23C9.8 9.22 9.95 9.27 10.08 9.36C10.19 9.43 10.27 9.55 10.32 9.67C10.37 9.81 10.38 9.97 10.34 10.11Z" fill="#393939"/>
</g>
<defs>
<clipPath id="clip0_6385_5923">
<rect width="20" height="20" fill="white"/>
</clipPath>
</defs>
</svg>
